<svg xmlns="http://www.w3.org/2000/svg" viewBox="2753 2920 8334 8334">
  <rect x="2753" y="2920" width="8334" height="8334" fill="#1a1a1a"/>
  <path fill="#F2F0E9" d="M6863.27,3836.91h-1308.39c-524.84,0-950.32,425.47-950.32,950.32v3412.99c0,31.31,25.38,56.69,56.69,56.69h406.61c31.31,0,56.69-25.38,56.69-56.69v-3350.29c0-272.29,220.73-528.73,493.02-528.73h1047.26c140.9,0,255.12-114.22,255.12-255.12v-172.48c0-31.31-25.38-56.69-56.69-56.69Z"/>
  <path fill="#F2F0E9" d="M7190.55,7355.8v2079.34c0,227-184.02,411.02-411.02,411.02h-1243.94c-227,0-411.02-184.02-411.02-411.02v-188.65c0-31.31-25.38-56.69-56.69-56.69h-406.61c-31.31,0-56.69,25.38-56.69,56.69v197.69c0,493.14,399.77,892.91,892.91,892.91h1320.16c493.14,0,892.91-399.77,892.91-892.91v-2494.99c0-31.31-25.38-56.69-56.69-56.69h0c-255.88,0-463.31,207.43-463.31,463.31Z"/>
  <path fill="#F2F0E9" stroke="#F2F0E9" stroke-miterlimit="10" d="M7454.34,4677.27c-982.65,0-1779.25,796.6-1779.25,1779.25,0,837.27,578.32,1539.46,1357.3,1728.91v-514.06c-502.82-174.62-863.77-652.58-863.77-1214.86,0-710.08,575.64-1285.72,1285.72-1285.72s1285.72,575.64,1285.72,1285.72c0,562.28-360.95,1040.23-863.77,1214.86v514.06c778.98-189.45,1357.3-891.64,1357.3-1728.91,0-982.65-796.6-1779.25-1779.25-1779.25Z"/>
  <path fill="#F2F0E9" stroke="#F2F0E9" stroke-miterlimit="10" d="M7448.94,4336.52c-1170.84,0-2120,949.16-2120,2120,0,1026.36,729.36,1882.36,1698.05,2078v-121.45c-902.56-193.72-1579.17-996.11-1579.17-1956.54,0-1105.19,895.93-2001.12,2001.12-2001.12s2001.12,895.93,2001.12,2001.12c0,960.43-676.61,1762.83-1579.17,1956.54v121.45c968.69-195.64,1698.05-1051.64,1698.05-2078,0-1170.84-949.16-2120-2120-2120Z"/>
  <path fill="#F2F0E9" d="M6919.96,2919.69c-2301.33,0-4166.93,1865.6-4166.93,4166.93s1865.6,4166.93,4166.93,4166.93,4166.93-1865.6,4166.93-4166.93-1865.6-4166.93-4166.93-4166.93ZM6919.96,11111.81c-2223.05,0-4025.2-1802.14-4025.2-4025.2s1802.14-4025.2,4025.2-4025.2,4025.2,1802.14,4025.2,4025.2-1802.14,4025.2-4025.2,4025.2Z"/>
</svg>
